<svg id="visual" viewBox="0 0 960 540" width="960" height="540" xmlns="http://www.w3.org/2000/svg" xmlns:xlink="http://www.w3.org/1999/xlink" version="1.1"><rect x="0" y="0" width="960" height="540" fill="#ffffff"></rect><path d="M0 61L22.8 61.3C45.7 61.7 91.3 62.3 137 62C182.7 61.7 228.3 60.3 274 59.5C319.7 58.7 365.3 58.3 411.2 57.8C457 57.3 503 56.7 548.8 57.3C594.7 58 640.3 60 686 60C731.7 60 777.3 58 823 57.2C868.7 56.3 914.3 56.7 937.2 56.8L960 57L960 0L937.2 0C914.3 0 868.7 0 823 0C777.3 0 731.7 0 686 0C640.3 0 594.7 0 548.8 0C503 0 457 0 411.2 0C365.3 0 319.7 0 274 0C228.3 0 182.7 0 137 0C91.3 0 45.7 0 22.8 0L0 0Z" fill="#fa7268"></path><path d="M0 47L22.8 47.8C45.7 48.7 91.3 50.3 137 50.3C182.7 50.3 228.3 48.7 274 48.2C319.7 47.7 365.3 48.3 411.2 48.2C457 48 503 47 548.8 46.7C594.7 46.3 640.3 46.7 686 47.3C731.7 48 777.3 49 823 49.2C868.7 49.3 914.3 48.7 937.2 48.3L960 48L960 0L937.2 0C914.3 0 868.7 0 823 0C777.3 0 731.7 0 686 0C640.3 0 594.7 0 548.8 0C503 0 457 0 411.2 0C365.3 0 319.7 0 274 0C228.3 0 182.7 0 137 0C91.3 0 45.7 0 22.8 0L0 0Z" fill="#ef5f67"></path><path d="M0 40L22.8 39.7C45.7 39.3 91.3 38.7 137 38.8C182.7 39 228.3 40 274 40.3C319.7 40.7 365.3 40.3 411.2 39.8C457 39.3 503 38.7 548.8 38.3C594.7 38 640.3 38 686 38C731.7 38 777.3 38 823 38.7C868.7 39.3 914.3 40.7 937.2 41.3L960 42L960 0L937.2 0C914.3 0 868.7 0 823 0C777.3 0 731.7 0 686 0C640.3 0 594.7 0 548.8 0C503 0 457 0 411.2 0C365.3 0 319.7 0 274 0C228.3 0 182.7 0 137 0C91.3 0 45.7 0 22.8 0L0 0Z" fill="#e34c67"></path><path d="M0 27L22.8 26.7C45.7 26.3 91.3 25.7 137 26C182.7 26.3 228.3 27.7 274 28.2C319.7 28.7 365.3 28.3 411.2 28.3C457 28.3 503 28.7 548.8 28.7C594.7 28.7 640.3 28.3 686 28C731.7 27.7 777.3 27.3 823 27.3C868.7 27.3 914.3 27.7 937.2 27.8L960 28L960 0L937.2 0C914.3 0 868.7 0 823 0C777.3 0 731.7 0 686 0C640.3 0 594.7 0 548.8 0C503 0 457 0 411.2 0C365.3 0 319.7 0 274 0C228.3 0 182.7 0 137 0C91.3 0 45.7 0 22.8 0L0 0Z" fill="#d53867"></path><path d="M0 18L22.8 17.7C45.7 17.3 91.3 16.7 137 16.7C182.7 16.7 228.3 17.3 274 17.3C319.7 17.3 365.3 16.7 411.2 16.7C457 16.7 503 17.3 548.8 17.3C594.7 17.3 640.3 16.7 686 16.7C731.7 16.7 777.3 17.3 823 17.5C868.7 17.7 914.3 17.3 937.2 17.2L960 17L960 0L937.2 0C914.3 0 868.7 0 823 0C777.3 0 731.7 0 686 0C640.3 0 594.7 0 548.8 0C503 0 457 0 411.2 0C365.3 0 319.7 0 274 0C228.3 0 182.7 0 137 0C91.3 0 45.7 0 22.8 0L0 0Z" fill="#c62368"></path></svg>